<svg xmlns="http://www.w3.org/2000/svg" viewBox="0 0 1378.74 117.91"><defs><style>.cls-1{fill:none;}.cls-2{fill:#0d1639;}</style></defs><title>Asset 1</title><g id="Layer_2" data-name="Layer 2"><g id="Layer_1-2" data-name="Layer 1"><path class="cls-1" d="M358.24,31.7c-50.42,17.72-98.11,43-149,59.39a303.09,303.09,0,0,1-50.51,11.54c37.51,7.64,78.3,6.79,112,4.63,33.53-2.15,64.42-13.12,95.11-26.33,35.76-15.38,70.43-33.16,106.23-48.45,14.17-6.05,28.68-11.88,43.46-16.85A151.43,151.43,0,0,0,500,11.42C453.13,1.27,402.2,16.25,358.24,31.7Z"/><path class="cls-1" d="M19.73,71.72c.08-.21.16-.43.23-.65l-.22,0C19.75,71.3,19.74,71.51,19.73,71.72Z"/><path class="cls-1" d="M603.14,24.66c-6.33,5.46-9.78,12.85-11,20.77,15.23-17.84,43.86-23.89,68.45-18.3a124.17,124.17,0,0,0-30.56-12C620.21,16.61,611.53,17.41,603.14,24.66Z"/><path class="cls-1" d="M718.19,27.13c24.6-5.59,53.22.46,68.46,18.3-1.27-7.93-4.72-15.32-11-20.77-8.4-7.25-17.08-8.05-26.85-9.54A124.18,124.18,0,0,0,718.19,27.13Z"/><path class="cls-1" d="M1358.77,71.07c.07.22.15.44.23.65,0-.21,0-.41,0-.62Z"/><path class="cls-1" d="M1020.5,31.7c-44-15.45-94.89-30.42-141.72-20.27a151.44,151.44,0,0,0-15.61,4.19c14.78,5,29.3,10.8,43.47,16.85,35.8,15.29,70.47,33.07,106.23,48.45,30.7,13.21,61.58,24.17,95.11,26.33,33.73,2.16,74.52,3,112-4.62a303,303,0,0,1-50.51-11.54C1118.62,74.72,1070.92,49.42,1020.5,31.7Z"/><path class="cls-2" d="M1371.15,56.34c-4.87-2-12.21-2-16.59,1.17a9.35,9.35,0,0,0-2.63,3,4.63,4.63,0,0,0-3.35,3.43c-1,4.4-1.84,9.91-.9,14.53a244.43,244.43,0,0,1-30.49,12.24c-17.3,4.21-35.55,5.52-53.24,5.31,23.66-11.08,44.1-27.69,55.13-52.56,1-2.34-2.2-4.39-3.51-2.05-15,26.71-39,43.24-66.78,53.26-.42-.12-.85-.23-1.28-.37-18.84-5.93-38-29.31-22.12-47.71,5.17-6,13.65-10.18,21.47-7.66,4.3,1.39,6.6,4.79,8,8.87,1,2.75.78,4.82-.12,6.39a4.38,4.38,0,0,0-2.92-2.83,47.74,47.74,0,0,0-10.74-2.15c-2.55-.23-4.65,2.29-4.66,4.66,0,3.18-.07,6.35-.21,9.53-.13,2.86,2.33,4.6,4.87,4.87,11.31,1.2,25.94-4.77,23.52-18.6-1.7-9.71-9.6-17.89-19.74-18.05-21.94-.34-39.3,22.51-31.69,43.36a41,41,0,0,0,13.11,18.23c-34.09-4.93-66.26-16-98.51-29.26-52.17-21.47-103.71-46.4-159.32-57.81C930-1.79,888.69-4.11,851.94,12,828.11,4.82,803.62.24,778.66.89c-31.32.81-57.95,13.6-79.58,33.57a55.41,55.41,0,0,0-9.71,7,55.34,55.34,0,0,0-9.71-7C658,14.49,631.4,1.7,600.07.89,575.12.24,550.62,4.82,526.8,12c-36.75-16.12-78.06-13.8-116.58-5.9C354.62,17.51,303.08,42.45,250.9,63.91c-32.25,13.27-64.42,24.33-98.51,29.26a41,41,0,0,0,13.12-18.23c7.6-20.85-9.76-43.7-31.7-43.36-10.13.16-18,8.35-19.74,18.05-2.42,13.84,12.21,19.8,23.52,18.6,2.54-.27,5-2,4.87-4.87-.14-3.18-.18-6.34-.2-9.53,0-2.37-2.11-4.89-4.66-4.66a47.72,47.72,0,0,0-10.74,2.15,4.38,4.38,0,0,0-2.92,2.83c-.9-1.57-1.1-3.64-.13-6.39,1.45-4.08,3.76-7.48,8.05-8.87,7.81-2.52,16.3,1.68,21.47,7.66C169.23,65,150,88.35,131.21,94.28c-.42.13-.85.24-1.27.37-27.76-10-51.75-26.55-66.79-53.26-1.31-2.33-4.54-.29-3.51,2.05,11,24.88,31.47,41.48,55.13,52.56-17.69.2-35.95-1.11-53.24-5.31A244.17,244.17,0,0,1,31,78.44c.93-4.62.15-10.14-.9-14.53a4.64,4.64,0,0,0-3.35-3.43,9.34,9.34,0,0,0-2.63-3c-4.38-3.15-11.72-3.15-16.59-1.17C-.94,59.8-1.94,69,2.89,76.07,6.65,81.62,14,88.54,21.41,87.61a10.7,10.7,0,0,0,6.85-3.29,134.82,134.82,0,0,0,39.37,15.9,174.24,174.24,0,0,0,25.17,5.2,110.05,110.05,0,0,0,27.42.11q8.69-.09,17.4-.69a248.6,248.6,0,0,0,27.52,6.9c23.42,4.53,47.38,6.17,71.21,6.17,19.79,0,40.15-.12,59.75-3.12,33.74-5.15,65.26-19.11,96.07-33.22,35.91-16.45,71.24-34.4,108.19-48.48,10-3.82,20.32-7.52,30.79-10.77a55.46,55.46,0,0,1,17.12,14.13c6.53,8.35,11.1,21.2,5.61,31.23s-16.49,18.52-27.5,22c-12.4,4-29.57,5.9-34.13-10-2.22-7.75-.29-21,10.8-16.33,5.92,2.5,9.41-5.91,3.41-8.08C494,50.81,484.4,60.5,484.06,72.84a27.82,27.82,0,0,0,24.45,28.51c22.14,2.89,54.23-13.51,56.36-38.14,1.57-18.21-9.95-33.58-24.44-43.63,21.46-6,43.56-9.7,65.63-8.21,2.17.15,4.32.36,6.45.6a41.35,41.35,0,0,0-13.34,8.75c-9,9.13-12.19,20.64-12.47,33.13-.05,2.46,3.26,3.2,4.48,1.21C601.89,37.79,627.27,33,646,33.93c14.12.67,28,4.09,39.24,11.72a45.2,45.2,0,0,0-8.38,14l-.83,1.14c-1,1.4,1.28,2.66,2.28,1.33a136.28,136.28,0,0,1,11-12.82,136.32,136.32,0,0,1,11,12.82c1,1.33,3.28.07,2.28-1.33-.27-.39-.55-.76-.83-1.14a45.11,45.11,0,0,0-8.38-14c11.22-7.63,25.13-11.05,39.24-11.72,18.77-.89,44.15,3.86,54.84,21.13,1.23,2,4.54,1.24,4.49-1.21-.28-12.5-3.5-24-12.47-33.13A41.28,41.28,0,0,0,766.21,12c2.14-.24,4.29-.45,6.46-.6,22.06-1.49,44.16,2.22,65.62,8.21-14.49,10-26,25.42-24.43,43.63,2.13,24.63,34.22,41,56.36,38.14a27.82,27.82,0,0,0,24.45-28.51c-.34-12.34-10-22-22.41-17.54-6,2.17-2.51,10.58,3.41,8.08,11.08-4.7,13,8.58,10.8,16.33-4.56,15.9-21.73,14-34.13,10-11-3.51-22-11.92-27.5-22s-.92-22.88,5.62-31.23a55.4,55.4,0,0,1,17.11-14.13c10.47,3.25,20.77,7,30.8,10.77,36.94,14.08,72.28,32,108.19,48.48,30.81,14.11,62.33,28.07,96.06,33.22,19.61,3,40,3.12,59.76,3.12,23.83,0,47.79-1.64,71.21-6.17a248.75,248.75,0,0,0,27.52-6.9q8.7.6,17.4.69a110.07,110.07,0,0,0,27.42-.11,174.31,174.31,0,0,0,25.17-5.2,134.88,134.88,0,0,0,39.38-15.9,10.68,10.68,0,0,0,6.84,3.29c7.38.93,14.76-6,18.52-11.54C1380.67,69,1379.68,59.8,1371.15,56.34ZM19.73,71.72c0-.21,0-.41,0-.62l.22,0C19.9,71.28,19.81,71.5,19.73,71.72ZM472.1,32.47c-35.8,15.29-70.47,33.07-106.23,48.45-30.69,13.21-61.58,24.17-95.11,26.33-33.72,2.16-74.52,3-112-4.62a303.09,303.09,0,0,0,50.51-11.54c50.87-16.36,98.57-41.67,149-59.39C402.2,16.25,453.13,1.27,500,11.42a151.43,151.43,0,0,1,15.61,4.19C500.79,20.59,486.28,26.41,472.1,32.47Zm120,13c1.26-7.93,4.72-15.32,11-20.77,8.39-7.25,17.07-8.05,26.85-9.54a124.17,124.17,0,0,1,30.56,12C635.95,21.54,607.32,27.59,592.09,45.43ZM775.6,24.66c6.32,5.46,9.78,12.85,11,20.77-15.24-17.84-43.86-23.89-68.46-18.3a124.18,124.18,0,0,1,30.56-12C758.53,16.61,767.2,17.41,775.6,24.66ZM1108,107.25c-33.53-2.15-64.41-13.12-95.11-26.33-35.75-15.38-70.42-33.16-106.23-48.45-14.17-6.05-28.68-11.88-43.47-16.85a151.44,151.44,0,0,1,15.61-4.19c46.83-10.15,97.76,4.83,141.72,20.27,50.42,17.72,98.12,43,149,59.39A303,303,0,0,0,1220,102.62C1182.49,110.27,1141.7,109.41,1108,107.25Zm250.8-36.18.22,0c0,.21,0,.41,0,.62C1358.92,71.5,1358.84,71.28,1358.77,71.07Z"/></g></g></svg>